<svg xmlns="http://www.w3.org/2000/svg" width="32" height="32" viewBox="0 0 32 32">
  <defs>
    <linearGradient id="logo-grad" x1="0%" y1="0%" x2="100%" y2="100%">
      <stop offset="0%" style="stop-color:#db2777" />
      <stop offset="100%" style="stop-color:#f43f5e" />
    </linearGradient>
  </defs>
  <rect width="32" height="32" rx="8" fill="url(#logo-grad)" />
  <path d="M22 10c0-1.657-1.343-3-3-3s-3 1.343-3 3c0 .105.01.206.021.305l-4.542 2.651C10.743 12.368 9.914 12 9 12c-1.657 0-3 1.343-3 3s1.343 3 3 3c.914 0 1.743-.368 2.336-.956l4.542 2.651c-.013.099-.021.2-.021.305 0 1.657 1.343 3 3 3s3-1.343 3-3-1.343-3-3-3c-.914 0-1.743.368-2.336.956l-4.542-2.651c.013-.099.021-.2.021-.305 0-.105-.01-.206-.021-.305l4.542-2.651C17.257 10.368 18.086 10 19 10c1.657 0 3-1.343 3-3z" fill="none" stroke="white" stroke-width="2" transform="scale(0.8) translate(4, 4)" stroke-linecap="round" stroke-linejoin="round"/>
  <!-- Simplified share icon path -->
  <circle cx="22" cy="10" r="3" fill="white" />
  <circle cx="10" cy="16" r="3" fill="white" />
  <circle cx="22" cy="22" r="3" fill="white" />
  <line x1="12.59" y1="14.51" x2="19.42" y2="10.49" stroke="white" stroke-width="2" />
  <line x1="19.41" y1="21.51" x2="12.59" y2="17.49" stroke="white" stroke-width="2" />
</svg>
